<?xml version="1.0" encoding="UTF-8"?>
<svg version="1.1" xmlns="http://www.w3.org/2000/svg" width="1000" height="1000">
<path d="M0 0 C1.36180138 -0.00810448 1.36180138 -0.00810448 2.75111389 -0.01637268 C5.76531219 -0.02891755 8.77856463 -0.01231126 11.79272461 0.00561523 C13.89765981 0.00546018 16.0025953 0.00397012 18.10752869 0.00120544 C22.53372732 -0.0001818 26.9596033 0.0124182 31.38574219 0.03515625 C37.01036509 0.06328088 42.63444116 0.0608794 48.25910282 0.04806614 C52.61682136 0.04104004 56.97441794 0.04898069 61.3321209 0.06132317 C63.40218065 0.06578934 65.47225375 0.06621758 67.54231453 0.06225777 C83.9779738 0.04556243 99.66259666 1.48303411 115.50756836 6.12670898 C116.372771 6.37904297 117.23797363 6.63137695 118.12939453 6.89135742 C149.29574035 16.3906405 178.50606719 36.41722306 198.13256836 62.50170898 C198.89569336 63.46463867 199.65881836 64.42756836 200.44506836 65.41967773 C224.78052664 96.94303185 235.60246162 137.05591282 235.50756836 176.37670898 C235.50702454 177.22899078 235.50648071 178.08127258 235.50592041 178.9593811 C235.37057617 225.29421009 219.28621061 270.70087145 186.52026367 304.07885742 C185.23179717 305.39996628 183.9737379 306.75054569 182.71850586 308.10327148 C159.28061201 332.79536701 124.74772422 348.516407 91.13256836 352.50170898 C90.14618629 352.62321571 90.14618629 352.62321571 89.13987732 352.74717712 C79.43243922 353.79194974 69.70039321 353.70472733 59.94897461 353.73999023 C58.99318953 353.74406576 58.03740444 353.74814129 57.05265617 353.75234032 C52.01004131 353.77306334 46.96745269 353.78743351 41.92480469 353.796875 C36.72050908 353.8080156 31.51663208 353.84254134 26.31248569 353.8820467 C22.30023892 353.90813348 18.28809431 353.91655888 14.27577019 353.92015648 C12.35598809 353.92502937 10.43621076 353.93666329 8.51651192 353.95519447 C5.84073823 353.97945572 3.16608358 353.97864709 0.49023438 353.97167969 C-0.69656921 353.99089478 -0.69656921 353.99089478 -1.90734863 354.01049805 C-5.31704751 353.97806683 -7.4842671 353.75559777 -10.35644531 351.85246277 C-12.28280491 348.85548191 -12.38048585 346.97439712 -12.40087891 343.41967773 C-12.41671524 342.191604 -12.43255157 340.96353027 -12.4488678 339.69824219 C-12.44502646 338.36189392 -12.43998749 337.02554863 -12.43383789 335.68920898 C-12.4390744 334.31444884 -12.44535098 332.9396923 -12.45262146 331.56494141 C-12.46302072 328.68659534 -12.45847135 325.8087438 -12.44384766 322.93041992 C-12.42665223 319.24449422 -12.45016359 315.56012628 -12.48533726 311.87437439 C-12.50731273 309.03639426 -12.50586986 306.19878693 -12.49757195 303.36074829 C-12.49675262 302.00198659 -12.50361271 300.64319748 -12.51834297 299.28451538 C-12.53578765 297.3843256 -12.51792736 295.48391114 -12.49853516 293.58374023 C-12.49757339 292.50326416 -12.49661163 291.42278809 -12.49562073 290.30957031 C-11.86743164 287.50170898 -11.86743164 287.50170898 -9.75097656 285.1517334 C-6.25905113 283.153581 -4.11015871 283.00856077 -0.09960938 283.01928711 C0.56149841 283.0153746 1.2226062 283.0114621 1.90374756 283.00743103 C3.33543003 283.00147039 4.76717328 283.00460024 6.19882393 283.01585388 C8.48606635 283.03324095 10.77205752 283.02553474 13.05931091 283.01159668 C18.75221443 282.98205263 24.44487682 282.99496854 30.13781738 283.0067749 C64.14403581 283.06580456 94.2149602 281.12691549 121.13256836 257.50170898 C121.88151367 256.8481543 122.63045898 256.19459961 123.40209961 255.52124023 C142.66365286 237.54154167 152.99779652 209.62393169 154.27148438 183.67114258 C155.31597437 150.51949193 148.21491373 121.58529047 126.01538086 96.06811523 C114.5313906 83.93210355 99.4854367 75.47173043 83.57006836 70.68920898 C82.92263672 70.49423828 82.27520508 70.29926758 81.6081543 70.09838867 C70.51947025 66.99662061 59.36915772 66.21643766 47.91662407 66.227314 C45.6333773 66.22829635 43.35057967 66.21514662 41.06739807 66.19833374 C34.58744481 66.15252265 28.10755179 66.12741118 21.62744141 66.12084961 C17.63761427 66.11583983 13.64827791 66.09164538 9.65861702 66.05552292 C8.14639288 66.04573874 6.63410125 66.04338546 5.12185478 66.04869461 C3.01608144 66.05575511 0.9117858 66.03851656 -1.19384766 66.01586914 C-2.38929703 66.0130191 -3.5847464 66.01016907 -4.81642151 66.00723267 C-7.86743164 65.50170898 -7.86743164 65.50170898 -10.25317383 63.8210144 C-12.24967353 60.9525181 -12.36855795 59.35590394 -12.36914062 55.87866211 C-12.37852158 54.75069214 -12.38790253 53.62272217 -12.39756775 52.46057129 C-12.38633377 51.24695923 -12.37509979 50.03334717 -12.36352539 48.78295898 C-12.36570824 46.90791687 -12.36570824 46.90791687 -12.36793518 44.99499512 C-12.36627489 42.35165454 -12.35678477 39.70975221 -12.33398438 37.06665039 C-12.30559892 33.68369407 -12.3083381 30.30164037 -12.32107449 26.91861725 C-12.32971305 23.68583987 -12.31458156 20.45320813 -12.30102539 17.22045898 C-12.30396103 16.00684692 -12.30689667 14.79323486 -12.30992126 13.54284668 C-12.29723709 12.41487671 -12.28455292 11.28690674 -12.27148438 10.12475586 C-12.26608139 9.13310425 -12.26067841 8.14145264 -12.25511169 7.11975098 C-11.15303289 -0.32269689 -6.5605544 -0.07387232 0 0 Z " fill="#91211E" transform="translate(438.867431640625,183.498291015625)"/>
<path d="M0 0 C75.38555674 -2.13721939 152.0882445 25.35383206 207.49414062 76.79638672 C209.62723805 78.76958688 211.79694924 80.67495875 214.00585938 82.56201172 C221.5650494 89.1453227 228.52223251 96.37159234 234.94335938 104.06201172 C235.60561523 104.84560059 235.60561523 104.84560059 236.28125 105.64501953 C277.35488454 154.38968018 313.27316131 227.30131093 307.94335938 293.06201172 C306.71113479 296.01935072 305.751934 297.43312035 303.25585938 299.37451172 C298.5610307 300.7702716 294.49812786 300.73799802 290.06835938 298.81201172 C287.19576143 296.44634283 286.13643139 294.37902899 285.59619141 290.69384766 C285.54833496 289.82018555 285.50047852 288.94652344 285.45117188 288.04638672 C285.38841064 287.05525879 285.32564941 286.06413086 285.26098633 285.04296875 C285.19741943 283.97675293 285.13385254 282.91053711 285.06835938 281.81201172 C280.67266961 220.36124665 256.1565522 161.89750354 214.94335938 116.06201172 C214.46092773 115.52318359 213.97849609 114.98435547 213.48144531 114.42919922 C205.40507314 105.43493404 197.23003458 96.91289185 187.77929688 89.33935547 C185.95446242 87.87395811 184.14557697 86.38835558 182.35742188 84.87841797 C170.15886876 74.60306017 156.78050124 65.9527014 142.94335938 58.06201172 C142.32509277 57.70429688 141.70682617 57.34658203 141.06982422 56.97802734 C79.52989873 21.66745459 2.95039736 13.90611746 -65.20751953 31.89355469 C-101.36179775 41.83474473 -135.86384335 58.40172038 -165.05664062 82.06201172 C-165.97445312 82.78775391 -166.89226562 83.51349609 -167.83789062 84.26123047 C-181.61061657 95.2833689 -194.86754426 107.50665287 -205.86132812 121.31591797 C-207.2529513 123.05668503 -208.67205015 124.776119 -210.12695312 126.46435547 C-221.90193173 140.21631388 -231.77432949 155.98374891 -240.05664062 172.06201172 C-240.48541504 172.89361816 -240.91418945 173.72522461 -241.35595703 174.58203125 C-259.1335366 209.48763711 -270.07083922 247.61564637 -271.60205078 286.875 C-272.22351242 291.23190664 -273.73683705 294.64444492 -276.74414062 297.87451172 C-280.09561511 299.59553916 -283.32057789 300.31299482 -287.05664062 300.06201172 C-292.67707858 297.20069785 -292.67707858 297.20069785 -294.05664062 293.06201172 C-297.24857455 235.35161914 -271.98451983 173.22196727 -239.05664062 127.06201172 C-238.52119629 126.31032715 -237.98575195 125.55864258 -237.43408203 124.78417969 C-231.78965496 116.92673165 -225.89643866 109.49025361 -219.27539062 102.42919922 C-217.36659122 100.39269845 -215.54681484 98.31664155 -213.74414062 96.18701172 C-206.13701208 87.47013736 -197.84666922 79.39638152 -188.77148438 72.22216797 C-185.96595043 69.98985104 -183.26929626 67.65595688 -180.55664062 65.31201172 C-167.45495343 54.39676392 -152.89030306 45.40847802 -138.05664062 37.06201172 C-137.46028809 36.7186377 -136.86393555 36.37526367 -136.24951172 36.02148438 C-95.2365376 12.44275689 -46.96268537 1.41601639 0 0 Z " fill="#92211E" transform="translate(493.056640625,90.93798828125)"/>
<path d="M0 0 C3.52185256 1.97678176 5.69957163 4.0987149 7 8 C7.22754307 9.91545326 7.41436412 11.83585532 7.578125 13.7578125 C13.14165396 75.16378377 35.0996554 135.57610572 78 181 C79.08825807 182.26661866 80.17168185 183.53740846 81.25 184.8125 C89.67971637 194.45203677 98.91594533 203.11710324 109 211 C110.09100167 211.88007691 111.1807915 212.76165767 112.26953125 213.64453125 C151.47472891 245.25031187 198.32725814 264.63834874 248 272 C248.74088867 272.11859375 249.48177734 272.2371875 250.24511719 272.359375 C319.88878863 283.288975 393.60186238 261.8290362 450.1015625 221.0546875 C458.19811333 215.13198168 465.67988031 208.86336346 473 202 C474.34874466 200.82706935 475.70252917 199.6598956 477.0625 198.5 C484.61757994 191.92026849 491.59994466 184.70306062 498 177 C498.41975098 176.49936035 498.83950195 175.9987207 499.27197266 175.48291016 C507.62048937 165.47920926 515.03347338 155.00653111 522 144 C522.43022461 143.32275879 522.86044922 142.64551758 523.30371094 141.94775391 C545.61398875 106.44463031 560.34627025 64.75103111 563.5078125 22.82421875 C563.62129028 21.32532104 563.62129028 21.32532104 563.73706055 19.79614258 C563.86660883 17.90814592 563.97380915 16.0184237 564.05395508 14.12768555 C564.43170289 8.08658666 565.59058927 5.21418491 570 1 C573.20860529 -0.60430264 576.5190457 -0.48105318 580 0 C584.07512981 2.39192402 585.57453926 4.57361172 587 9 C587.12280273 11.51000977 587.12280273 11.51000977 586.93359375 14.19140625 C586.82772949 15.71072754 586.82772949 15.71072754 586.71972656 17.26074219 C586.6265918 18.35032227 586.53345703 19.43990234 586.4375 20.5625 C586.34307617 21.70493164 586.24865234 22.84736328 586.15136719 24.02441406 C579.44161458 97.63140159 543.95760178 171.76199612 487.3515625 220.26953125 C485.52119433 221.76686681 483.68114731 223.25244201 481.83203125 224.7265625 C478.93744897 227.05021338 476.129544 229.45821259 473.3125 231.875 C460.23777787 242.75102046 445.69350173 251.50565901 431 260 C430.35240723 260.37753418 429.70481445 260.75506836 429.03759766 261.14404297 C361.48278209 300.17367725 277.87900082 305.42090073 203.62109375 285.83984375 C147.84364321 270.61623655 92.35444179 236.41500161 56.19140625 190.7421875 C54.73826894 188.92382316 53.2457729 187.13618435 51.71484375 185.3828125 C43.48498637 175.93520387 36.72479641 165.549449 30 155 C29.53561523 154.27151855 29.07123047 153.54303711 28.59277344 152.79248047 C2.70505825 111.66457511 -17.00264477 57.3151275 -15 8 C-11.94861724 1.28695793 -7.44565734 -1.5577287 0 0 Z " fill="#2A53A5" transform="translate(214,397)"/>
<path d="M0 0 C1.15790039 -0.00315216 2.31580078 -0.00630432 3.50878906 -0.009552 C4.76916992 -0.00752777 6.02955078 -0.00550354 7.328125 -0.00341797 C8.61170898 -0.00437469 9.89529297 -0.00533142 11.21777344 -0.00631714 C13.93816324 -0.00779378 16.65852025 -0.00564066 19.37890625 -0.00097656 C22.87297169 0.00472073 26.36696033 0.00144154 29.86102295 -0.00454903 C33.18339653 -0.00902301 36.50574923 -0.00589432 39.828125 -0.00341797 C41.08850586 -0.0054422 42.34888672 -0.00746643 43.64746094 -0.009552 C44.80536133 -0.00639984 45.96326172 -0.00324768 47.15625 0 C48.18137695 0.00079559 49.20650391 0.00159119 50.26269531 0.00241089 C52.578125 0.12939453 52.578125 0.12939453 53.578125 1.12939453 C53.7092768 3.81705171 53.77498784 6.48019487 53.79931641 9.16963196 C53.81075432 10.02304977 53.82219223 10.87646758 53.83397675 11.75574654 C53.87098951 14.63977945 53.90046103 17.52383733 53.9296875 20.40795898 C53.95394676 22.46789818 53.97843747 24.52783466 54.00314331 26.58776855 C54.22115155 45.539118 54.34135408 64.49152893 54.43743896 83.4438448 C54.50338523 96.16690924 54.59714987 108.88842577 54.76464844 121.6105957 C54.91091539 132.72070381 55.00213016 143.82973554 55.03012276 154.94079369 C55.04661346 160.80729972 55.08774595 166.67094115 55.19464111 172.53655434 C55.68692934 200.73902711 53.50490349 223.08558653 40.47090149 248.34966087 C37.34871295 254.45975311 34.84930427 260.84057101 32.265625 267.19189453 C31.39715952 269.2672151 30.52656674 271.34164897 29.65234375 273.41455078 C29.12000122 274.68117554 29.12000122 274.68117554 28.5769043 275.97338867 C27.578125 278.12939453 27.578125 278.12939453 25.578125 281.12939453 C23.25561523 280.97094727 23.25561523 280.97094727 20.578125 280.12939453 C19.03930664 277.80151367 19.03930664 277.80151367 17.73828125 274.66455078 C16.97741211 272.86920898 16.97741211 272.86920898 16.20117188 271.03759766 C15.68049614 269.75589696 15.1603082 268.47399799 14.640625 267.19189453 C13.89905259 265.42904253 13.15736339 263.66623764 12.41272545 261.90467834 C11.87049023 260.59723555 11.3429805 259.28360661 10.82892799 257.96482849 C8.86611342 252.98524937 6.63368633 248.25219673 4.17086792 243.49914551 C-8.03045616 219.11728563 -8.3285293 196.14369907 -7.8743217 169.30017734 C-7.78909893 163.36863186 -7.78513807 157.4369618 -7.77137756 151.50489807 C-7.73339649 140.32901532 -7.62343867 129.15509322 -7.48668343 117.98003107 C-7.33476753 105.23717364 -7.27119232 92.49429648 -7.21163166 79.75072944 C-7.12069457 60.99912897 -7.00099989 42.2475155 -6.79109001 23.49683762 C-6.7689039 21.47348688 -6.74834826 19.45011756 -6.729496 17.42673302 C-6.70332206 14.67876992 -6.67083668 11.93095961 -6.63633728 9.18309021 C-6.62970045 8.37264124 -6.62306361 7.56219227 -6.61622566 6.72718424 C-6.52294624 0.31864833 -6.32976803 0.00491249 0 0 Z " fill="#2C54A5" transform="translate(366.421875,255.87060546875)"/>
<path d="M0 0 C6.27 0 12.54 0 19 0 C19.495 19.8 19.495 19.8 20 40 C27.15327753 32.85748927 27.15327753 32.85748927 33.85546875 25.4296875 C37.40060082 21.41316265 41.08790444 17.52837343 44.76245117 13.63037109 C45.33584229 13.02016113 45.9092334 12.40995117 46.5 11.78125 C47.08450928 11.17216797 47.66901855 10.56308594 48.27124023 9.93554688 C50.05466841 8.01617385 50.05466841 8.01617385 51.55883789 5.76757812 C54.00519267 2.39885174 55.6357295 0.30734743 59.80029297 -0.63085938 C63.04970995 -0.78682329 66.19097304 -0.70037911 69.4375 -0.5 C71.1071582 -0.44585938 71.1071582 -0.44585938 72.81054688 -0.390625 C75.54396097 -0.29677387 78.27015413 -0.16565759 81 0 C77.62289504 4.66786126 74.2327662 8.99870731 70.0625 13 C66.57245964 16.41765433 63.28513038 19.88794524 60.1171875 23.6015625 C58.32261275 25.63453094 56.49417429 27.61466479 54.6328125 29.5859375 C54.01696289 30.23860596 53.40111328 30.89127441 52.76660156 31.5637207 C51.53505981 32.86504135 50.30019537 34.1632281 49.06152344 35.45776367 C45.31110903 39.42551032 42.07753671 43.48821505 39 48 C39.41773682 48.44279297 39.83547363 48.88558594 40.26586914 49.34179688 C42.19955151 51.39314917 44.13103149 53.44656317 46.0625 55.5 C46.71927734 56.19609375 47.37605469 56.8921875 48.05273438 57.609375 C51.88191443 61.68377348 55.61338133 65.82228383 59.27856445 70.04443359 C62.7016677 73.93310996 66.28216931 77.67640709 69.83789062 81.44335938 C73.68065735 85.53349621 77.37617406 89.71428805 81 94 C92.48286261 71.36445293 103.39766234 48.44914994 114.03515625 25.40625 C117.95980372 16.90730552 121.97245656 8.45055625 126 0 C131.61 0 137.22 0 143 0 C143.94617188 2.01351562 144.89234375 4.02703125 145.8671875 6.1015625 C147.20285543 8.94283512 148.53891586 11.78392308 149.875 14.625 C150.40521255 15.75261749 150.40521255 15.75261749 150.94613647 16.90301514 C155.17756266 25.90052811 159.41887518 34.89321381 163.68359375 43.875 C164.06792572 44.68446579 164.45225769 45.49393158 164.84823608 46.32792664 C165.23121857 47.13454239 165.61420105 47.94115814 166.00878906 48.7722168 C171.93755251 61.25963954 177.85677608 73.74990432 183.625 86.3125 C184.30816284 87.7977417 184.30816284 87.7977417 185.00512695 89.31298828 C185.60973755 90.6372583 185.60973755 90.6372583 186.2265625 91.98828125 C186.57283691 92.74665283 186.91911133 93.50502441 187.27587891 94.28637695 C188 96 188 96 188 97 C180.74 97 173.48 97 166 97 C164.02 92.854375 164.02 92.854375 162 88.625 C161.37351562 87.32103271 161.37351562 87.32103271 160.734375 85.99072266 C160.40953125 85.3054248 160.0846875 84.62012695 159.75 83.9140625 C159.41484375 83.2123291 159.0796875 82.5105957 158.734375 81.78759766 C158 80 158 80 158 78 C142.49 78 126.98 78 111 78 C110.34 79.98 109.68 81.96 109 84 C107.98688929 86.30443317 106.94461926 88.59624591 105.875 90.875 C105.33617187 92.02742187 104.79734375 93.17984375 104.2421875 94.3671875 C103.83226562 95.23601562 103.42234375 96.10484375 103 97 C96.59593375 97.20369226 90.19270898 97.34328717 83.78613281 97.43945312 C81.60938301 97.47955966 79.43284705 97.53406149 77.25683594 97.60351562 C74.11860337 97.70113677 70.98322951 97.74605376 67.84375 97.78125 C66.39639465 97.84318542 66.39639465 97.84318542 64.9197998 97.90637207 C59.36642542 97.91001809 56.5335345 97.14628242 52.52539062 93.18164062 C51.32388059 91.81043434 50.14720136 90.41695522 49 89 C47.91924336 87.76856714 46.83630774 86.53903875 45.75 85.3125 C45.18796875 84.65894531 44.6259375 84.00539063 44.046875 83.33203125 C41.41833529 80.33730185 38.71079487 77.42018386 36 74.5 C32.06148279 70.25537725 28.17368144 65.98103333 24.40234375 61.5859375 C22.9986871 59.99851522 21.49835935 58.49835935 20 57 C19.67 70.2 19.34 83.4 19 97 C12.73 97 6.46 97 0 97 C0 64.99 0 32.98 0 0 Z M134 29 C131.86128497 33.39536275 129.72510623 37.79194518 127.59130859 42.18969727 C126.86447287 43.68678373 126.13693501 45.18352952 125.40869141 46.67993164 C124.36437845 48.82610134 123.322565 50.97346818 122.28125 53.12109375 C121.95314331 53.79401962 121.62503662 54.4669455 121.2869873 55.16026306 C119.69115229 57.95809676 119.69115229 57.95809676 119 61 C128.9 61 138.8 61 149 61 C146.4600446 53.34118508 146.4600446 53.34118508 143.30078125 46.08984375 C142.81416016 45.08115234 142.32753906 44.07246094 141.82617188 43.03320312 C141.32666016 42.01162109 140.82714844 40.99003906 140.3125 39.9375 C139.80138672 38.88111328 139.29027344 37.82472656 138.76367188 36.73632812 C137.51396126 34.15515013 136.25932878 31.5764953 135 29 C134.67 29 134.34 29 134 29 Z " fill="#92211E" transform="translate(676,727)"/>
<path d="M0 0 C1.36180138 -0.00810448 1.36180138 -0.00810448 2.75111389 -0.01637268 C5.76531219 -0.02891755 8.77856463 -0.01231126 11.79272461 0.00561523 C13.89765981 0.00546018 16.0025953 0.00397012 18.10752869 0.00120544 C22.53372732 -0.0001818 26.9596033 0.0124182 31.38574219 0.03515625 C37.01036509 0.06328088 42.63444116 0.0608794 48.25910282 0.04806614 C52.61682136 0.04104004 56.97441794 0.04898069 61.3321209 0.06132317 C63.40218065 0.06578934 65.47225375 0.06621758 67.54231453 0.06225777 C83.9779738 0.04556243 99.66259666 1.48303411 115.50756836 6.12670898 C116.372771 6.37904297 117.23797363 6.63137695 118.12939453 6.89135742 C149.29574035 16.3906405 178.50606719 36.41722306 198.13256836 62.50170898 C198.89569336 63.46463867 199.65881836 64.42756836 200.44506836 65.41967773 C224.78052664 96.94303185 235.60246162 137.05591282 235.50756836 176.37670898 C235.50702454 177.22899078 235.50648071 178.08127258 235.50592041 178.9593811 C235.37057617 225.29421009 219.28621061 270.70087145 186.52026367 304.07885742 C185.23179717 305.39996628 183.9737379 306.75054569 182.71850586 308.10327148 C159.28061201 332.79536701 124.74772422 348.516407 91.13256836 352.50170898 C90.14618629 352.62321571 90.14618629 352.62321571 89.13987732 352.74717712 C79.43243922 353.79194974 69.70039321 353.70472733 59.94897461 353.73999023 C58.99318953 353.74406576 58.03740444 353.74814129 57.05265617 353.75234032 C52.01004131 353.77306334 46.96745269 353.78743351 41.92480469 353.796875 C36.72050908 353.8080156 31.51663208 353.84254134 26.31248569 353.8820467 C22.30023892 353.90813348 18.28809431 353.91655888 14.27577019 353.92015648 C12.35598809 353.92502937 10.43621076 353.93666329 8.51651192 353.95519447 C5.84073823 353.97945572 3.16608358 353.97864709 0.49023438 353.97167969 C-0.69656921 353.99089478 -0.69656921 353.99089478 -1.90734863 354.01049805 C-5.31704751 353.97806683 -7.4842671 353.75559777 -10.35644531 351.85246277 C-12.28280491 348.85548191 -12.38048585 346.97439712 -12.40087891 343.41967773 C-12.41671524 342.191604 -12.43255157 340.96353027 -12.4488678 339.69824219 C-12.44502646 338.36189392 -12.43998749 337.02554863 -12.43383789 335.68920898 C-12.4390744 334.31444884 -12.44535098 332.9396923 -12.45262146 331.56494141 C-12.46302072 328.68659534 -12.45847135 325.8087438 -12.44384766 322.93041992 C-12.42665223 319.24449422 -12.45016359 315.56012628 -12.48533726 311.87437439 C-12.50731273 309.03639426 -12.50586986 306.19878693 -12.49757195 303.36074829 C-12.49675262 302.00198659 -12.50361271 300.64319748 -12.51834297 299.28451538 C-12.53578765 297.3843256 -12.51792736 295.48391114 -12.49853516 293.58374023 C-12.49757339 292.50326416 -12.49661163 291.42278809 -12.49562073 290.30957031 C-11.86743164 287.50170898 -11.86743164 287.50170898 -9.75097656 285.1517334 C-6.25905113 283.153581 -4.11015871 283.00856077 -0.09960938 283.01928711 C0.56149841 283.0153746 1.2226062 283.0114621 1.90374756 283.00743103 C3.33543003 283.00147039 4.76717328 283.00460024 6.19882393 283.01585388 C8.48606635 283.03324095 10.77205752 283.02553474 13.05931091 283.01159668 C18.75221443 282.98205263 24.44487682 282.99496854 30.13781738 283.0067749 C64.14403581 283.06580456 94.2149602 281.12691549 121.13256836 257.50170898 C121.88151367 256.8481543 122.63045898 256.19459961 123.40209961 255.52124023 C142.66365286 237.54154167 152.99779652 209.62393169 154.27148438 183.67114258 C155.31597437 150.51949193 148.21491373 121.58529047 126.01538086 96.06811523 C114.5313906 83.93210355 99.4854367 75.47173043 83.57006836 70.68920898 C82.92263672 70.49423828 82.27520508 70.29926758 81.6081543 70.09838867 C70.51947025 66.99662061 59.36915772 66.21643766 47.91662407 66.227314 C45.6333773 66.22829635 43.35057967 66.21514662 41.06739807 66.19833374 C34.58744481 66.15252265 28.10755179 66.12741118 21.62744141 66.12084961 C17.63761427 66.11583983 13.64827791 66.09164538 9.65861702 66.05552292 C8.14639288 66.04573874 6.63410125 66.04338546 5.12185478 66.04869461 C3.01608144 66.05575511 0.9117858 66.03851656 -1.19384766 66.01586914 C-2.38929703 66.0130191 -3.5847464 66.01016907 -4.81642151 66.00723267 C-7.86743164 65.50170898 -7.86743164 65.50170898 -10.25317383 63.8210144 C-12.24967353 60.9525181 -12.36855795 59.35590394 -12.36914062 55.87866211 C-12.37852158 54.75069214 -12.38790253 53.62272217 -12.39756775 52.46057129 C-12.38633377 51.24695923 -12.37509979 50.03334717 -12.36352539 48.78295898 C-12.36570824 46.90791687 -12.36570824 46.90791687 -12.36793518 44.99499512 C-12.36627489 42.35165454 -12.35678477 39.70975221 -12.33398438 37.06665039 C-12.30559892 33.68369407 -12.3083381 30.30164037 -12.32107449 26.91861725 C-12.32971305 23.68583987 -12.31458156 20.45320813 -12.30102539 17.22045898 C-12.30396103 16.00684692 -12.30689667 14.79323486 -12.30992126 13.54284668 C-12.29723709 12.41487671 -12.28455292 11.28690674 -12.27148438 10.12475586 C-12.26608139 9.13310425 -12.26067841 8.14145264 -12.25511169 7.11975098 C-11.15303289 -0.32269689 -6.5605544 -0.07387232 0 0 Z M-6.86743164 5.50170898 C-6.96102354 7.22036307 -6.98487775 8.94286642 -6.98095703 10.6640625 C-6.9808815 11.76512833 -6.98080597 12.86619415 -6.98072815 14.00062561 C-6.97556686 15.19852219 -6.97040558 16.39641876 -6.96508789 17.63061523 C-6.96367294 18.84998276 -6.962258 20.06935028 -6.96080017 21.32566833 C-6.95518131 25.23853968 -6.9426256 29.15135479 -6.92993164 33.06420898 C-6.92491907 35.70939045 -6.92035574 38.35457281 -6.91625977 40.99975586 C-6.90520575 47.50042624 -6.88844928 54.0010636 -6.86743164 60.50170898 C-5.67497833 60.51050835 -5.67497833 60.51050835 -4.45843506 60.51948547 C3.12906135 60.57801573 10.71625158 60.65042031 18.30347061 60.7374239 C22.20172204 60.78166275 26.09988001 60.82101254 29.99829102 60.84814453 C68.28269589 61.12298018 101.41008951 65.29221404 129.87475586 93.18920898 C151.62216951 115.92814605 159.71896768 146.7905779 159.62207031 177.51831055 C158.94819356 205.9082199 149.1887899 234.27923846 130.13256836 255.50170898 C129.52026367 256.19651367 128.90795898 256.89131836 128.27709961 257.60717773 C116.37559277 270.32072769 101.0454971 278.30190768 84.57006836 283.31420898 C83.93480225 283.50926025 83.29953613 283.70431152 82.64501953 283.90527344 C70.55512761 287.3299623 58.14813567 287.81715555 45.67163086 287.91577148 C44.14463318 287.93453928 42.61764527 287.95411656 41.09066772 287.97445679 C37.12233305 288.02519275 33.15396495 288.06512655 29.18548584 288.1026001 C24.3968463 288.15015063 19.60836483 288.21149083 14.81985474 288.27044678 C7.59082518 288.35794283 0.3618148 288.42821745 -6.86743164 288.50170898 C-6.86743164 308.30170898 -6.86743164 328.10170898 -6.86743164 348.50170898 C9.14914235 348.61839568 9.14914235 348.61839568 25.16577148 348.69702148 C31.71546684 348.72076827 38.26493482 348.74860327 44.81445312 348.8034668 C50.10540032 348.84750119 55.39610307 348.87096519 60.68721962 348.88121796 C62.68785758 348.88850753 64.6884849 348.90273559 66.68901634 348.92462921 C101.37108621 349.28846956 135.14251615 339.2807647 163.13256836 318.50170898 C164.05682617 317.81979492 164.98108398 317.13788086 165.93334961 316.43530273 C203.03285319 287.47020882 224.21780777 244.67031305 230.13256836 198.50170898 C230.23496826 197.7531665 230.33736816 197.00462402 230.44287109 196.23339844 C236.18771043 150.85985337 222.74551354 103.0831777 195.25756836 66.81420898 C174.47942703 40.23437885 148.05943345 22.14635653 116.13256836 11.50170898 C114.3246582 10.89842773 114.3246582 10.89842773 112.48022461 10.28295898 C95.81749786 5.14998365 79.16673047 4.0533492 61.84350586 4.17358398 C59.87765651 4.1766516 57.91180497 4.17852008 55.94595337 4.17926025 C51.87363056 4.18381248 47.80151116 4.19805565 43.72924805 4.22045898 C38.50038533 4.2490787 33.27167925 4.25970982 28.04274559 4.26414108 C24.00575188 4.26828129 19.96878989 4.27808147 15.93181229 4.29001617 C14.00120928 4.2957184 12.07060325 4.30047726 10.13999557 4.30428314 C7.46477519 4.31111314 4.7896821 4.32472073 2.11450195 4.34057617 C0.91634605 4.34225296 0.91634605 4.34225296 -0.30601501 4.34396362 C-3.88316622 4.04058183 -3.88316622 4.04058183 -6.86743164 5.50170898 Z " fill="#2D51A1" transform="translate(438.867431640625,183.498291015625)"/>
<path d="M0 0 C12.00375 -0.12375 12.00375 -0.12375 24.25 -0.25 C28.00165527 -0.30462402 28.00165527 -0.30462402 31.82910156 -0.36035156 C33.84960069 -0.37205268 35.87010938 -0.38224112 37.890625 -0.390625 C38.90882324 -0.41108887 39.92702148 -0.43155273 40.97607422 -0.45263672 C53.50852939 -0.45861309 63.66203898 3.70942482 73 12 C82.74449424 22.05764434 86.91893974 34.60039084 87.3125 48.375 C87.04429228 61.83271676 82.62521036 74.4566364 73.375 84.375 C53.24088558 103.20720928 26.40881395 97 0 97 C0 64.99 0 32.98 0 0 Z M20 15 C20 36.45 20 57.9 20 80 C41.77670405 80.79996107 41.77670405 80.79996107 58.796875 70.54296875 C65.39605823 62.9258264 67.34352263 54.7705833 67.2109375 44.90625 C66.54039983 35.66773102 62.94841414 28.36624777 56.0078125 22.2421875 C44.70066865 13.40981476 34.95346807 15 20 15 Z " fill="#92211E" transform="translate(136,727)"/>
<path d="M0 0 C8.023125 -0.0825 16.04625 -0.165 24.3125 -0.25 C26.82270752 -0.28641602 29.33291504 -0.32283203 31.91918945 -0.36035156 C33.94221139 -0.37205036 35.96524286 -0.38223935 37.98828125 -0.390625 C39.52325256 -0.4213208 39.52325256 -0.4213208 41.0892334 -0.45263672 C53.88842032 -0.45873956 64.20170204 4.6024725 73.625 13.0625 C84.74079475 24.72242457 86.60917738 38.57657049 86.30859375 53.8515625 C85.75643049 66.50320377 79.86024087 77.72085932 70.6875 86.375 C50.56608159 103.04605634 25.62800055 97 0 97 C0 64.99 0 32.98 0 0 Z M20 15 C20 36.45 20 57.9 20 80 C41.41751339 80.90638311 41.41751339 80.90638311 58.28125 71.03125 C64.82659238 63.29584537 67.50366162 53.28767526 66.80859375 43.23046875 C65.49646463 35.53500875 62.14547556 27.08922195 56 22 C43.32879786 14.48527318 35.99305379 15 20 15 Z " fill="#92211E" transform="translate(273,727)"/>
<path d="M0 0 C5.61 0 11.22 0 17 0 C27.10825138 21.25950565 37.21060146 42.52165983 47.24755859 63.81494141 C50.17048526 70.01497876 53.09589129 76.21336061 56.05859375 82.39453125 C56.49220215 83.30098389 56.92581055 84.20743652 57.37255859 85.14135742 C58.13386934 86.73036321 58.89822889 88.31791414 59.66650391 89.90356445 C62 94.77833369 62 94.77833369 62 97 C54.74 97 47.48 97 40 97 C38.68 94.23625 37.36 91.4725 36 88.625 C35.58234375 87.75568848 35.1646875 86.88637695 34.734375 85.99072266 C34.40953125 85.3054248 34.0846875 84.62012695 33.75 83.9140625 C33.24726563 82.8614624 33.24726563 82.8614624 32.734375 81.78759766 C32 80 32 80 32 78 C16.49 78 0.98 78 -15 78 C-15.99 80.97 -16.98 83.94 -18 87 C-19.54337179 90.41280804 -21.267494 93.67546147 -23 97 C-30.26 97 -37.52 97 -45 97 C-43.52072158 92.56216475 -42.02171335 88.7709651 -39.98046875 84.6171875 C-39.68590286 84.01420334 -39.39133698 83.41121918 -39.08784485 82.78996277 C-38.45439646 81.49346464 -37.81943801 80.1977034 -37.18310547 78.90261841 C-35.4705998 75.41498388 -33.77199538 71.9206044 -32.07421875 68.42578125 C-31.72853851 67.71439499 -31.38285828 67.00300873 -31.02670288 66.27006531 C-26.68914288 57.32387175 -22.53104388 48.29582458 -18.36328125 39.26953125 C-14.50496942 30.91392926 -10.59710106 22.58169882 -6.6875 14.25 C-6.35041016 13.53143829 -6.01332031 12.81287659 -5.66601562 12.07254028 C-3.77804656 8.04802961 -1.88916586 4.02394941 0 0 Z M8 29 C6.15949387 32.75008372 4.32667026 36.50379582 2.50073242 40.26098633 C1.8791104 41.53739002 1.25543678 42.81279677 0.62963867 44.0871582 C-0.27191747 45.92398022 -1.16592168 47.76431598 -2.05859375 49.60546875 C-2.86768188 51.26292114 -2.86768188 51.26292114 -3.69311523 52.95385742 C-5.22672633 56.2392792 -5.22672633 56.2392792 -6 61 C3.57 61 13.14 61 23 61 C20.62081956 53.86245867 18.04392868 47.30068229 14.9375 40.5 C14.49083984 39.4996875 14.04417969 38.499375 13.58398438 37.46875 C13.15279297 36.52 12.72160156 35.57125 12.27734375 34.59375 C11.88796631 33.73458984 11.49858887 32.87542969 11.09741211 31.99023438 C10.15884925 29.84304654 10.15884925 29.84304654 8 29 Z " fill="#92211E" transform="translate(401,727)"/>
<path d="M0 0 C6.6 0 13.2 0 20 0 C20.495 19.8 20.495 19.8 21 40 C29.69531607 30.58007426 38.37938816 21.15077898 47.02734375 11.6875 C47.52484131 11.14359619 48.02233887 10.59969238 48.53491211 10.03930664 C49.91962521 8.52537518 51.30358586 7.01075559 52.6875 5.49609375 C53.450625 4.67238281 54.21375 3.84867188 55 3 C55.4328833 2.45956055 55.8657666 1.91912109 56.31176758 1.36230469 C58.68205205 -0.55037606 60.30899672 -0.34294481 63.32421875 -0.29296875 C64.35224609 -0.28330078 65.38027344 -0.27363281 66.43945312 -0.26367188 C68.04723633 -0.2259668 68.04723633 -0.2259668 69.6875 -0.1875 C71.31268555 -0.16719727 71.31268555 -0.16719727 72.97070312 -0.14648438 C75.64763405 -0.11110643 78.32356838 -0.06174189 81 0 C79.57567584 2.97816718 78.22096735 4.97931682 75.8125 7.25 C73.40558542 9.58814559 71.12027956 11.95157717 68.9375 14.5 C65.43888486 18.55934127 61.78994609 22.46659713 58.125 26.375 C53.24549621 31.57898529 48.41813169 36.81837478 43.671875 42.14453125 C42.48387024 43.46299448 41.25493039 44.74506961 40 46 C40.24479317 49.88405164 42.39537002 51.67767073 45.125 54.25 C47.9298502 56.96267202 50.6538632 59.6572106 53.1875 62.625 C56.67612271 66.69369815 60.33314039 70.59279241 64 74.5 C68.7657312 79.58440284 73.49076683 84.68464693 78 90 C78.50273438 90.58523438 79.00546875 91.17046875 79.5234375 91.7734375 C83 95.86464088 83 95.86464088 83 97 C59.00783388 99.25359942 59.00783388 99.25359942 52.84765625 94.38671875 C50.20914105 91.71903765 48.05806396 88.75273877 46.03759766 85.59765625 C44.70789311 83.55022412 43.15112146 81.79419288 41.5 80 C40.97664063 79.39414062 40.45328125 78.78828125 39.9140625 78.1640625 C36.78979268 74.63172478 33.56876652 71.18804586 30.34960938 67.7421875 C29.61581055 66.95328125 29.61581055 66.95328125 28.8671875 66.1484375 C28.43519043 65.68614746 28.00319336 65.22385742 27.55810547 64.74755859 C25.30641422 62.22207976 23.16607192 59.5992863 21 57 C20.67 70.2 20.34 83.4 20 97 C13.4 97 6.8 97 0 97 C0 64.99 0 32.98 0 0 Z " fill="#92211E" transform="translate(471,727)"/>
<path d="M0 0 C0.8627504 -0.00428513 1.72550079 -0.00857025 2.61439514 -0.01298523 C4.43229294 -0.01870754 6.25021363 -0.01924432 8.06811523 -0.01489258 C10.83552437 -0.0117326 13.6018634 -0.03521767 16.36914062 -0.06054688 C18.14192575 -0.06282023 19.91471372 -0.0635232 21.6875 -0.0625 C22.50749985 -0.07170975 23.32749969 -0.08091949 24.17234802 -0.09040833 C29.48396706 -0.0480425 33.2680862 0.6302158 37.91015625 3.30078125 C41.80904907 7.55534328 41.37767661 12.51464433 41.37890625 17.984375 C41.39032654 19.38406273 41.39032654 19.38406273 41.40197754 20.81202698 C41.41276077 22.78131439 41.41563888 24.75065892 41.41113281 26.7199707 C41.41016052 29.72509542 41.45180122 32.72766556 41.49609375 35.73242188 C41.5013012 37.64973428 41.50398894 39.56705552 41.50390625 41.484375 C41.52849915 42.82525429 41.52849915 42.82525429 41.55358887 44.19322205 C41.50580496 48.5287587 41.280387 51.41035339 38.49804688 54.85180664 C35.25246846 57.92316485 33.87404685 58.42376444 29.55566406 58.49365234 C28.65422668 58.50971527 27.75278931 58.5257782 26.82403564 58.54232788 C22.69454695 58.58680742 18.56521922 58.62785331 14.43554688 58.65087891 C12.25900573 58.66742685 10.08251866 58.69470136 7.90625 58.73291016 C4.76664053 58.78774841 1.62830552 58.80956509 -1.51171875 58.82421875 C-2.48067078 58.84688812 -3.4496228 58.8695575 -4.44793701 58.89291382 C-8.95364131 58.87886483 -12.09892007 58.7941473 -15.68847656 55.89306641 C-18.61610684 52.73267821 -19.2116064 51.38166513 -19.2668457 47.22167969 C-19.27968094 46.38030457 -19.29251617 45.53892944 -19.30574036 44.67205811 C-19.31312729 43.76063049 -19.32051422 42.84920288 -19.328125 41.91015625 C-19.33619675 40.97278625 -19.34426849 40.03541626 -19.35258484 39.06964111 C-19.36643061 37.0824163 -19.37715056 35.09516766 -19.38500977 33.10791016 C-19.40219687 30.0766858 -19.44607539 27.04655935 -19.49023438 24.015625 C-19.50036358 22.08464344 -19.50887897 20.1536526 -19.515625 18.22265625 C-19.53313309 17.31932556 -19.55064117 16.41599487 -19.56867981 15.48529053 C-19.54983709 9.98503213 -19.02054886 6.4934244 -15.08984375 2.30078125 C-10.25563223 -0.14382913 -5.3036248 -0.00588032 0 0 Z " fill="#FEFEFE" transform="translate(379.08984375,186.69921875)"/>
<path d="M0 0 C24.09 0 48.18 0 73 0 C73 5.61 73 11.22 73 17 C64.42 17 55.84 17 47 17 C47 43.4 47 69.8 47 97 C40.4 97 33.8 97 27 97 C27 70.6 27 44.2 27 17 C18.09 17 9.18 17 0 17 C0 11.39 0 5.78 0 0 Z " fill="#92211E" transform="translate(555,727)"/>
<path d="M0 0 C6.6 0 13.2 0 20 0 C20 32.01 20 64.02 20 97 C13.4 97 6.8 97 0 97 C0 64.99 0 32.98 0 0 Z " fill="#92211E" transform="translate(639,727)"/>
<path d="M0 0 C6.6 0 13.2 0 20 0 C20 32.01 20 64.02 20 97 C13.4 97 6.8 97 0 97 C0 64.99 0 32.98 0 0 Z " fill="#92211E" transform="translate(236,727)"/>
<path d="M0 0 C2.31 0 4.62 0 7 0 C7 66.99 7 133.98 7 203 C4.69 203 2.38 203 0 203 C0 136.01 0 69.02 0 0 Z " fill="#FFFFFF" transform="translate(375,263)"/>
<path d="M0 0 C29.46666667 0 29.46666667 0 36.05859375 5.81640625 C36.74115234 6.68072266 36.74115234 6.68072266 37.4375 7.5625 C37.91058594 8.14128906 38.38367188 8.72007812 38.87109375 9.31640625 C42.13213617 14.17976017 41.63036722 20.41168837 41 26 C39.01199781 31.12261145 35.67681479 35.10482894 31 38 C24.7254271 40.56105016 18.72512939 40.1511265 12 40 C12 45.94 12 51.88 12 58 C8.04 58 4.08 58 0 58 C0 38.86 0 19.72 0 0 Z M12 9 C12 15.93 12 22.86 12 30 C21.3268482 30.92450033 21.3268482 30.92450033 25.5625 27.625 C28.16232732 24.82518596 28.88991097 23.96878349 29.3125 20.25 C28.91485635 16.11450604 27.65876389 14.16177328 25 11 C20.50137941 8.25084297 17.74867884 9 12 9 Z " fill="#2A53A5" transform="translate(276,849)"/>
<path d="M0 0 C0.8627504 -0.00428513 1.72550079 -0.00857025 2.61439514 -0.01298523 C4.43229294 -0.01870754 6.25021363 -0.01924432 8.06811523 -0.01489258 C10.83552437 -0.0117326 13.6018634 -0.03521767 16.36914062 -0.06054688 C18.14192575 -0.06282023 19.91471372 -0.0635232 21.6875 -0.0625 C22.50749985 -0.07170975 23.32749969 -0.08091949 24.17234802 -0.09040833 C29.48396706 -0.0480425 33.2680862 0.6302158 37.91015625 3.30078125 C41.80904907 7.55534328 41.37767661 12.51464433 41.37890625 17.984375 C41.39032654 19.38406273 41.39032654 19.38406273 41.40197754 20.81202698 C41.41276077 22.78131439 41.41563888 24.75065892 41.41113281 26.7199707 C41.41016052 29.72509542 41.45180122 32.72766556 41.49609375 35.73242188 C41.5013012 37.64973428 41.50398894 39.56705552 41.50390625 41.484375 C41.52849915 42.82525429 41.52849915 42.82525429 41.55358887 44.19322205 C41.50580496 48.5287587 41.280387 51.41035339 38.49804688 54.85180664 C35.25246846 57.92316485 33.87404685 58.42376444 29.55566406 58.49365234 C28.65422668 58.50971527 27.75278931 58.5257782 26.82403564 58.54232788 C22.69454695 58.58680742 18.56521922 58.62785331 14.43554688 58.65087891 C12.25900573 58.66742685 10.08251866 58.69470136 7.90625 58.73291016 C4.76664053 58.78774841 1.62830552 58.80956509 -1.51171875 58.82421875 C-2.48067078 58.84688812 -3.4496228 58.8695575 -4.44793701 58.89291382 C-8.95364131 58.87886483 -12.09892007 58.7941473 -15.68847656 55.89306641 C-18.61610684 52.73267821 -19.2116064 51.38166513 -19.2668457 47.22167969 C-19.27968094 46.38030457 -19.29251617 45.53892944 -19.30574036 44.67205811 C-19.31312729 43.76063049 -19.32051422 42.84920288 -19.328125 41.91015625 C-19.33619675 40.97278625 -19.34426849 40.03541626 -19.35258484 39.06964111 C-19.36643061 37.0824163 -19.37715056 35.09516766 -19.38500977 33.10791016 C-19.40219687 30.0766858 -19.44607539 27.04655935 -19.49023438 24.015625 C-19.50036358 22.08464344 -19.50887897 20.1536526 -19.515625 18.22265625 C-19.53313309 17.31932556 -19.55064117 16.41599487 -19.56867981 15.48529053 C-19.54983709 9.98503213 -19.02054886 6.4934244 -15.08984375 2.30078125 C-10.25563223 -0.14382913 -5.3036248 -0.00588032 0 0 Z M-12.08984375 9.30078125 C-12.36876706 12.41115822 -12.46143684 15.31971596 -12.41796875 18.4296875 C-12.41609558 19.33452377 -12.41422241 20.23936005 -12.41229248 21.1716156 C-12.40556434 23.08572063 -12.39163478 24.99981173 -12.37109375 26.91381836 C-12.33993378 29.85478384 -12.33012411 32.79521394 -12.32421875 35.73632812 C-12.31504938 37.5924545 -12.30467382 39.44857539 -12.29296875 41.3046875 C-12.28871887 42.19007706 -12.28446899 43.07546661 -12.28009033 43.98768616 C-12.62831906 47.96243692 -12.62831906 47.96243692 -11.08984375 51.30078125 C-9.74990759 51.40379539 -8.4046641 51.43926578 -7.06079102 51.44604492 C-6.2064296 51.45242477 -5.35206818 51.45880463 -4.47181702 51.46537781 C-3.5426799 51.46649063 -2.61354279 51.46760345 -1.65625 51.46875 C-0.23384254 51.4737426 -0.23384254 51.4737426 1.21730042 51.47883606 C3.22730014 51.48390944 5.23730833 51.48624426 7.24731445 51.48608398 C10.33103244 51.48826947 13.41439231 51.50641808 16.49804688 51.52539062 C18.44661335 51.52832459 20.39518154 51.53030937 22.34375 51.53125 C23.27086288 51.53843552 24.19797577 51.54562103 25.15318298 51.55302429 C26.43945335 51.54840935 26.43945335 51.54840935 27.75170898 51.54370117 C28.50814194 51.54512619 29.26457489 51.54655121 30.04393005 51.54801941 C32.15561909 51.46072892 32.15561909 51.46072892 33.91015625 49.30078125 C34.12247687 46.31130686 34.21411343 43.41684259 34.2109375 40.42578125 C34.21736519 39.10537842 34.21736519 39.10537842 34.22392273 37.75830078 C34.22967066 35.89551657 34.23016289 34.03270991 34.22583008 32.16992188 C34.22266878 29.31211284 34.24612763 26.45533728 34.27148438 23.59765625 C34.2737571 21.7903659 34.27446099 19.98307274 34.2734375 18.17578125 C34.28264725 17.31742676 34.29185699 16.45907227 34.30134583 15.57470703 C34.31583434 12.91976641 34.31583434 12.91976641 33.91015625 9.30078125 C29.96080111 6.66787782 26.55509873 7.01333199 21.97265625 7.03515625 C21.09617432 7.0332428 20.21969238 7.03132935 19.31665039 7.02935791 C17.46402703 7.02799726 15.61139409 7.03168531 13.75878906 7.04003906 C10.92100636 7.05074033 8.08385673 7.04013977 5.24609375 7.02734375 C3.44661318 7.02866537 1.64713301 7.0312278 -0.15234375 7.03515625 C-1.0023999 7.03110779 -1.85245605 7.02705933 -2.72827148 7.02288818 C-7.70502919 7.05665191 -7.70502919 7.05665191 -12.08984375 9.30078125 Z " fill="#952926" transform="translate(379.08984375,186.69921875)"/>
<path d="M0 0 C4.9306157 3.39623055 7.21956957 7.80894499 9.05859375 13.41796875 C9.05859375 16.71796875 9.05859375 20.01796875 9.05859375 23.41796875 C-1.83140625 23.41796875 -12.72140625 23.41796875 -23.94140625 23.41796875 C-20.20945578 28.58905622 -20.20945578 28.58905622 -14.94140625 30.41796875 C-11.14591264 29.9010198 -7.46446098 28.97441436 -3.8671875 27.66015625 C-1.94140625 27.41796875 -1.94140625 27.41796875 -0.23828125 28.6328125 C0.2721875 29.20128906 0.78265625 29.76976562 1.30859375 30.35546875 C1.829375 30.92136719 2.35015625 31.48726562 2.88671875 32.0703125 C3.46679688 32.73740234 3.46679688 32.73740234 4.05859375 33.41796875 C3.05859375 36.41796875 3.05859375 36.41796875 1.34375 37.55078125 C-7.21821114 41.37281663 -14.68867316 42.56586762 -23.68359375 39.421875 C-29.31139854 36.91954657 -32.67981809 33.19313258 -35.18359375 27.5859375 C-37.36923282 21.33320718 -37.47358309 15.83216408 -35.08203125 9.625 C-32.36133087 4.36063111 -28.75360013 0.55503158 -23.75390625 -2.58203125 C-15.129567 -4.84415302 -7.80295163 -4.45704597 0 0 Z M-22.94140625 10.41796875 C-23.27140625 11.73796875 -23.60140625 13.05796875 -23.94140625 14.41796875 C-17.01140625 14.41796875 -10.08140625 14.41796875 -2.94140625 14.41796875 C-5.69319162 9.39949742 -5.69319162 9.39949742 -9.94140625 6.41796875 C-15.73231207 5.77453477 -18.81171445 5.91285042 -22.94140625 10.41796875 Z " fill="#2A53A5" transform="translate(464.94140625,867.58203125)"/>
<path d="M0 0 C5.10815698 3.03465563 9.41175665 7.87895782 11.5625 13.4375 C11.86328125 16.6796875 11.86328125 16.6796875 11.875 20.3125 C11.89175781 21.50617187 11.90851562 22.69984375 11.92578125 23.9296875 C11.16391043 31.28624664 7.14098857 35.33252076 1.76171875 40 C-2.90900628 43.05297835 -9.29347527 43.68296372 -14.7890625 43.25390625 C-22.26206695 41.62369485 -27.06063434 37.39490048 -31.4375 31.4375 C-34.25492029 25.47757246 -34.44342245 19.29855563 -32.78515625 12.93359375 C-30.27246636 6.56020437 -26.26015982 2.3039329 -20.109375 -0.69921875 C-13.83534611 -2.72635382 -6.06389583 -2.72758249 0 0 Z M-20.1875 13.1875 C-21.94223579 16.34602442 -22.3131402 18.83106581 -22.4375 22.4375 C-20.79872743 27.08068896 -18.69070365 29.9242433 -14.4375 32.4375 C-10.63994451 32.91219444 -8.22940675 32.76146185 -4.6875 31.3125 C-1.26009414 28.45632845 0.34618883 25.75868524 0.765625 21.2578125 C0.61247196 16.70916732 -0.26947517 14.02219956 -3.625 10.875 C-6.1357016 9.02663072 -7.42521106 8.43971201 -10.5625 7.875 C-14.68915716 8.68238944 -17.23034888 10.23034888 -20.1875 13.1875 Z " fill="#2A53A5" transform="translate(605.4375,865.5625)"/>
<path d="M0 0 C5.11716751 3.0400086 9.39377435 7.87767607 11.5625 13.4375 C12.29503066 20.35395225 12.67780691 27.64618654 8.953125 33.7578125 C4.92682021 38.62104581 -0.05388919 42.07337914 -6.3046875 43.25 C-14.21289663 43.94522718 -20.28134613 42.53792147 -26.4375 37.4375 C-31.53367315 32.61364144 -33.46452382 27.60078299 -33.875 20.6875 C-33.7282246 14.20002751 -31.27065307 8.60440147 -26.9453125 3.76953125 C-19.73137836 -2.6034002 -8.79898841 -3.95784614 0 0 Z M-19.4375 12.4375 C-21.47513127 15.98692221 -22.4375 18.40296192 -22.4375 22.5 C-20.99559329 26.73560097 -18.55753547 30.37748226 -14.4375 32.4375 C-10.20359838 32.84460593 -7.92161648 32.69325965 -4.125 30.6875 C-0.29201879 27.47849248 0.42395318 25.96151498 0.875 21 C0.43094005 15.9377166 -1.21248887 13.66251113 -4.75 10.125 C-10.42695416 6.56040088 -14.60704506 8.25110572 -19.4375 12.4375 Z " fill="#2A53A5" transform="translate(387.4375,865.5625)"/>
<path d="M0 0 C3.61400234 2.71050175 6.45740163 5.78980327 8.5 9.875 C8.58639869 12.28338678 8.61567764 14.66233881 8.59765625 17.0703125 C8.5962413 17.77775604 8.59482635 18.48519958 8.59336853 19.21408081 C8.587766 21.47609669 8.57521318 23.73801398 8.5625 26 C8.55748532 27.53255065 8.55292236 29.06510286 8.54882812 30.59765625 C8.53779577 34.35680888 8.52052952 38.11588772 8.5 41.875 C7.31047729 41.85542236 7.31047729 41.85542236 6.09692383 41.83544922 C0.64348639 41.78306429 -4.46446703 41.80482432 -9.8125 43 C-14.64236342 43.87013205 -17.95722047 44.10003487 -22.5 41.875 C-25.74239682 38.84406384 -27.25957747 36.70145243 -28.5 32.4375 C-28.5 27.0051429 -27.03344393 23.40844393 -23.1875 19.5625 C-16.47250378 15.34610702 -10.21025664 15.65042942 -2.5 15.875 C-4.36566488 12.24706002 -4.36566488 12.24706002 -7.5 9.875 C-12.75905171 9.47045756 -15.95298292 10.21333147 -20.5 12.875 C-22.48 10.895 -24.46 8.915 -26.5 6.875 C-24.77019164 2.81889764 -22.98212507 1.4550551 -19.05078125 -0.36328125 C-12.82794205 -2.22155636 -6.14325669 -1.97461822 0 0 Z M-16.5 27.875 C-16.17958603 30.47780568 -16.17958603 30.47780568 -15.5 32.875 C-10.05106131 34.07376651 -7.27830905 33.78860308 -2.5 30.875 C-2.5 28.565 -2.5 26.255 -2.5 23.875 C-7.84401044 23.62052331 -12.57627117 23.95127117 -16.5 27.875 Z " fill="#2A53A5" transform="translate(694.5,865.125)"/>
<path d="M0 0 C3.5 1.8125 3.5 1.8125 6 4 C6.86625 4.6496875 6.86625 4.6496875 7.75 5.3125 C11.10395101 9.84033386 11.24356567 15.59886169 11.1953125 21.02734375 C11.18886719 22.31318359 11.18242188 23.59902344 11.17578125 24.92382812 C11.15907601 26.26172154 11.14214619 27.59961217 11.125 28.9375 C11.11495322 30.30272783 11.10583036 31.6679628 11.09765625 33.03320312 C11.07417605 36.35565199 11.04133359 39.67773321 11 43 C7.04 43 3.08 43 -1 43 C-1.01458252 42.13721436 -1.02916504 41.27442871 -1.04418945 40.38549805 C-1.10527754 37.18150353 -1.17943549 33.97815375 -1.26245117 30.7746582 C-1.29568549 29.38870623 -1.32372226 28.00261939 -1.34643555 26.61645508 C-1.38000617 24.62293157 -1.43388 22.62978259 -1.48828125 20.63671875 C-1.51446533 19.43748779 -1.54064941 18.23825684 -1.56762695 17.00268555 C-1.753822 14.01597368 -1.753822 14.01597368 -3.41088867 12.10791016 C-5.40546028 10.71731775 -6.58481869 10.62803531 -9 10.6875 C-9.680625 10.69136719 -10.36125 10.69523438 -11.0625 10.69921875 C-13.32191109 10.91091707 -13.32191109 10.91091707 -16 13 C-16.51220541 16.10213725 -16.51220541 16.10213725 -16.51171875 19.7578125 C-16.52966995 20.42086395 -16.54762115 21.08391541 -16.56611633 21.76705933 C-16.62032924 23.88630803 -16.65414771 26.00533025 -16.6875 28.125 C-16.72066367 29.56122952 -16.75515245 30.9974291 -16.79101562 32.43359375 C-16.87605964 35.95551129 -16.94281873 39.47750759 -17 43 C-20.63 43 -24.26 43 -28 43 C-28 29.14 -28 15.28 -28 1 C-23.33333333 1 -18.66666667 1 -14 1 C-9.37437788 -0.54187404 -4.83070206 -0.5114048 0 0 Z " fill="#2A53A5" transform="translate(651,864)"/>
<path d="M0 0 C2.54611309 1.78872502 3.59022009 3.01033014 5.375 5.6875 C3.395 7.6675 1.415 9.6475 -0.625 11.6875 C-1.32625 11.39875 -2.0275 11.11 -2.75 10.8125 C-3.69875 10.44125 -4.6475 10.07 -5.625 9.6875 C-6.635625 9.275 -7.64625 8.8625 -8.6875 8.4375 C-11.55959668 7.40846208 -11.55959668 7.40846208 -14 8.5625 C-14.53625 8.93375 -15.0725 9.305 -15.625 9.6875 C-15.625 10.6775 -15.625 11.6675 -15.625 12.6875 C-14.9959375 12.84605469 -14.366875 13.00460937 -13.71875 13.16796875 C-6.68859427 15.08432144 -0.42135393 17.36682971 4.375 23.0625 C5.70431911 26.55196266 5.83081076 28.97589811 5.375 32.6875 C2.9239847 37.5895306 0.53656036 39.87139543 -4.625 41.6875 C-11.48755554 43.19562549 -17.29794005 42.88324515 -23.625 39.6875 C-26.1875 37.5 -26.1875 37.5 -27.625 35.6875 C-26.18246343 32.32158134 -24.29235273 30.17702921 -21.625 27.6875 C-17.625 29.6875 -17.625 29.6875 -15.8125 30.8125 C-12.72502823 32.04748871 -9.91274877 31.81395188 -6.625 31.6875 C-6.6398824 29.74012552 -6.6398824 29.74012552 -7.625 27.6875 C-10.45458568 26.23775171 -10.45458568 26.23775171 -13.875 25.1875 C-19.19188273 23.40718633 -23.493938 21.52891599 -26.9375 16.9375 C-28.48272105 11.88041292 -28.27239125 8.05996945 -26.0625 3.375 C-19.59363234 -3.75734126 -8.25185102 -4.97515972 0 0 Z " fill="#2A53A5" transform="translate(542.625,866.3125)"/>
<path d="M0 0 C2.55145671 1.95430727 4.28099603 3.52164052 5.9375 6.25 C3.9575 8.23 1.9775 10.21 -0.0625 12.25 C-0.8359375 11.816875 -0.8359375 11.816875 -1.625 11.375 C-7.40844791 8.58329187 -7.40844791 8.58329187 -13.5 9.125 C-14.015625 9.49625 -14.53125 9.8675 -15.0625 10.25 C-15.0625 11.24 -15.0625 12.23 -15.0625 13.25 C-14.42183594 13.42015625 -13.78117187 13.5903125 -13.12109375 13.765625 C-6.19965549 15.70486552 -0.46722604 17.47531611 4.375 23.0625 C6.24885221 26.88515851 6.53890736 29.04014849 5.9375 33.25 C3.4864847 38.1520306 1.09906036 40.43389543 -4.0625 42.25 C-10.70446997 43.68760759 -16.04645707 43.55815665 -22.0625 40.25 C-25.0625 38.0625 -25.0625 38.0625 -27.0625 36.25 C-25.61996343 32.88408134 -23.72985273 30.73952921 -21.0625 28.25 C-17.0625 30.25 -17.0625 30.25 -15.25 31.375 C-12.16252823 32.60998871 -9.35024877 32.37645188 -6.0625 32.25 C-6.0773824 30.30262552 -6.0773824 30.30262552 -7.0625 28.25 C-9.89208568 26.80025171 -9.89208568 26.80025171 -13.3125 25.75 C-18.62938273 23.96968633 -22.931438 22.09141599 -26.375 17.5 C-27.92022105 12.44291292 -27.70989125 8.62246945 -25.5 3.9375 C-19.31983675 -2.87652615 -8.18104822 -4.39449087 0 0 Z " fill="#2A53A5" transform="translate(505.0625,865.75)"/>
<path d="M0 0 C14.52 0 29.04 0 44 0 C43.19556303 4.02218486 42.28530298 7.0208651 40.71484375 10.73828125 C40.26689453 11.80498047 39.81894531 12.87167969 39.35742188 13.97070312 C38.88884766 15.07349609 38.42027344 16.17628906 37.9375 17.3125 C37.46505859 18.43462891 36.99261719 19.55675781 36.50585938 20.71289062 C35.34139806 23.47701597 34.17124875 26.23874387 33 29 C25.74 29 18.48 29 11 29 C9.42839924 25.35419238 7.86017226 21.7072086 6.30029297 18.05639648 C5.76870727 16.81500279 5.23519155 15.5744337 4.69970703 14.3347168 C3.93014157 12.55215191 3.1680931 10.76634771 2.40625 8.98046875 C1.94541016 7.90692139 1.48457031 6.83337402 1.00976562 5.72729492 C0 3 0 3 0 0 Z " fill="#F8F9FC" transform="translate(368,472)"/>
<path d="M0 0 C1.73830078 0.00966797 1.73830078 0.00966797 3.51171875 0.01953125 C6.3125 0.1875 6.3125 0.1875 7.3125 1.1875 C7.38455511 2.87358966 7.39636068 4.56250659 7.375 6.25 C7.36597656 7.16910156 7.35695313 8.08820312 7.34765625 9.03515625 C7.33605469 9.74542969 7.32445312 10.45570313 7.3125 11.1875 C6.19875 11.166875 5.085 11.14625 3.9375 11.125 C0.48034079 10.92369282 0.48034079 10.92369282 -1.6875 12.1875 C-2.41825648 14.5015622 -3.08888258 16.83578869 -3.6875 19.1875 C-1.3775 19.1875 0.9325 19.1875 3.3125 19.1875 C3.3125 22.4875 3.3125 25.7875 3.3125 29.1875 C1.0025 29.1875 -1.3075 29.1875 -3.6875 29.1875 C-3.6875 39.7475 -3.6875 50.3075 -3.6875 61.1875 C-7.3175 61.1875 -10.9475 61.1875 -14.6875 61.1875 C-14.6875 50.6275 -14.6875 40.0675 -14.6875 29.1875 C-16.3375 29.1875 -17.9875 29.1875 -19.6875 29.1875 C-19.6875 25.8875 -19.6875 22.5875 -19.6875 19.1875 C-18.0375 19.1875 -16.3875 19.1875 -14.6875 19.1875 C-14.73390625 18.630625 -14.7803125 18.07375 -14.828125 17.5 C-15.1039245 11.66881061 -14.34934474 6.9004298 -10.6875 2.1875 C-7.27405433 -0.21197428 -4.08145884 -0.05027553 0 0 Z " fill="#2A53A5" transform="translate(421.6875,845.8125)"/>
<path d="M0 0 C2.31 0 4.62 0 7 0 C7 39.93 7 79.86 7 121 C4.69 121 2.38 121 0 121 C0 81.07 0 41.14 0 0 Z " fill="#FFFFFF" transform="translate(399,345)"/>
<path d="M0 0 C3.96 0 7.92 0 12 0 C12.33 16.5 12.66 33 13 50 C15.94729537 51.15811388 15.94729537 51.15811388 19 51 C19 53.97 19 56.94 19 60 C15.14247366 62.04931087 12.15067658 62.2790063 7.93359375 61.609375 C4.67883202 60.58363191 3.03351875 58.64973655 1 56 C-0.04643411 52.90139845 -0.12142592 50.02747772 -0.11352539 46.77246094 C-0.11344986 45.73168396 -0.11337433 44.69090698 -0.11329651 43.61859131 C-0.10813522 42.50179993 -0.10297394 41.38500854 -0.09765625 40.234375 C-0.0962413 39.08584045 -0.09482635 37.93730591 -0.09336853 36.75396729 C-0.08777143 33.08595169 -0.07521944 29.41799715 -0.0625 25.75 C-0.05748463 23.26302171 -0.05292178 20.77604247 -0.04882812 18.2890625 C-0.03780295 12.19268481 -0.02054027 6.09635276 0 0 Z " fill="#2A53A5" transform="translate(710,847)"/>
<path d="M0 0 C3.5 1.75 3.5 1.75 6 4 C6 9.04250428 4.59750368 10.77905653 2 15 C1.484375 14.690625 0.96875 14.38125 0.4375 14.0625 C-2.66665423 12.70940713 -5.65115007 12.38640576 -9 12 C-11.6675286 15.8413654 -12.39708382 18.52160316 -12.51171875 23.17578125 C-12.54716797 24.33271484 -12.58261719 25.48964844 -12.61914062 26.68164062 C-12.65297852 28.47891602 -12.65297852 28.47891602 -12.6875 30.3125 C-12.72166016 31.53001953 -12.75582031 32.74753906 -12.79101562 34.00195312 C-12.87334817 37.00121014 -12.94254921 40.00018014 -13 43 C-16.63 43 -20.26 43 -24 43 C-24 29.14 -24 15.28 -24 1 C-20.37 1 -16.74 1 -13 1 C-12.67 1.66 -12.34 2.32 -12 3 C-11.505 2.505 -11.01 2.01 -10.5 1.5 C-7.0316098 -0.58103412 -3.8936984 -0.6787865 0 0 Z " fill="#2A53A5" transform="translate(346,864)"/>
<path d="M0 0 C3.96 0 7.92 0 12 0 C12 13.86 12 27.72 12 42 C8.04 42 4.08 42 0 42 C0 28.14 0 14.28 0 0 Z " fill="#2A53A5" transform="translate(553,865)"/>
<path d="M0 0 C2.31 0 4.62 0 7 0 C7 16.5 7 33 7 50 C4.69 50 2.38 50 0 50 C0 33.5 0 17 0 0 Z " fill="#FDFEFE" transform="translate(399,281)"/>
<path d="M0 0 C3.96 0 7.92 0 12 0 C12 3.96 12 7.92 12 12 C8.04 12 4.08 12 0 12 C0 8.04 0 4.08 0 0 Z " fill="#2A53A5" transform="translate(553,847)"/>
</svg>
